<svg id="Layer_8" data-name="Layer 8" xmlns="http://www.w3.org/2000/svg" viewBox="0 0 56.93 45.89"><path d="M13.17,25.66,16.62,41a5,5,0,0,0,6,3.8l2.9-.65,1,4.21a.93.93,0,0,0,.7.69.6.6,0,0,0,.19,0,.91.91,0,0,0,.73-.37l4.71-6.2,12.93-2.92a5,5,0,0,0,3.79-6h0L46.16,18.21a5,5,0,0,0-6-3.8L17,19.63a5,5,0,0,0-3.81,6Zm27.36-9.44a3.2,3.2,0,0,1,3.82,2.41L47.79,34a3.17,3.17,0,0,1-2.35,3.81h0l-13.26,3a.91.91,0,0,0-.53.35L27.87,46l-.78-3.21a.92.92,0,0,0-.89-.72H26l-3.79.86a3.19,3.19,0,0,1-3.81-2.41L15,25.19a3.19,3.19,0,0,1,2.4-3.81Z" transform="translate(-13.04 -13.4)" style="fill:#0482dc"/><path d="M36.26,44.43a.91.91,0,0,0-.75-1.06.92.92,0,0,0-1,.65l-.64,2.82a4.15,4.15,0,0,0,3.14,5l10.11,2.28,3.68,4.83a.94.94,0,0,0,.74.37h.19a.94.94,0,0,0,.71-.69l.75-3.13,2.1.47a4.16,4.16,0,0,0,5-3.14l2.72-12.08a4.16,4.16,0,0,0-3.14-5l-7.21-1.65a.91.91,0,0,0-1.08.72.93.93,0,0,0,.67,1.07l7.19,1.65a2.37,2.37,0,0,1,1.45,1,2.34,2.34,0,0,1,.3,1.75L58.4,52.38a2.33,2.33,0,0,1-2.77,1.75l-3-.68a.93.93,0,0,0-1.1.69L51,56.26l-2.69-3.55a1,1,0,0,0-.53-.35L37.39,50a2.3,2.3,0,0,1-1.45-1,2.26,2.26,0,0,1-.3-1.74Z" transform="translate(-13.04 -13.4)" style="fill:#ff9c00"/><path d="M21.72,28.34a.67.67,0,0,0,.2,0l17.89-4.05a.92.92,0,0,0-.4-1.8h0l-17.89,4a.93.93,0,0,0,.2,1.84Z" transform="translate(-13.04 -13.4)" style="fill:#29485b"/><path d="M40.34,26.64l-17.89,4a.93.93,0,1,0,.2,1.84.67.67,0,0,0,.2,0l17.89-4a.92.92,0,1,0-.4-1.79h0Z" transform="translate(-13.04 -13.4)" style="fill:#29485b"/><path d="M36.25,31.92l-12.89,2.9a.93.93,0,1,0,.21,1.84h0a.67.67,0,0,0,.2,0l12.89-2.9a.92.92,0,0,0-.29-1.82l-.12,0Z" transform="translate(-13.04 -13.4)" style="fill:#29485b"/><path d="M57,17.4a.89.89,0,0,0-.89.89V21.5H52.86a.9.9,0,0,0,0,1.79h3.22V26.5a.89.89,0,1,0,1.78,0V23.29h3.22a.9.9,0,0,0,0-1.79H57.86V18.29A.89.89,0,0,0,57,17.4Z" transform="translate(-13.04 -13.4)" style="fill:#0482dc"/><path d="M65,13.4a.89.89,0,0,0-.89.89V17.5H60.86a.9.9,0,0,0,0,1.79h3.22V22.5a.89.89,0,1,0,1.78,0V19.29h3.22a.9.9,0,0,0,0-1.79H65.86V14.29A.89.89,0,0,0,65,13.4Z" transform="translate(-13.04 -13.4)" style="fill:#ff9c00"/></svg>