<svg width="24" height="24" viewBox="0 0 24 24" fill="none" xmlns="http://www.w3.org/2000/svg">
<path d="M19.0116 13.5884C20.6408 13.4926 22.27 13.3969 23.8992 13.3011C23.8034 14.0673 23.6437 15.0569 23.2284 16.1742C22.6534 17.7066 21.9506 18.7601 21.6631 19.1432C20.9922 20.0051 19.8422 21.3459 17.9893 22.3994C15.4976 23.836 13.1336 23.9956 12.2072 23.9956C11.1211 24.0275 8.34182 23.9317 5.53063 22.144C3.3264 20.7394 2.17636 18.9835 1.72913 18.2493C1.28189 17.5789 0.0679676 15.4081 0.00407682 12.3115C-0.0278686 11.1941 0.099913 8.86369 1.40967 6.40556C1.76107 5.73516 2.84722 3.85165 5.0195 2.28739C6.7765 1.01043 8.43766 0.531576 9.01268 0.371957C9.68353 0.180414 11.0252 -0.0749769 12.6864 0.0207945C13.485 0.0846422 15.6254 0.308109 17.9254 1.61699C19.6505 2.60662 20.7686 3.81973 21.4394 4.68167C20.2894 5.79901 19.1394 6.94826 17.9574 8.0656C17.606 7.52289 16.8393 6.53325 15.4976 5.76708C14.9865 5.47977 13.9003 4.93706 12.4628 4.87322C9.04462 4.64975 6.7765 7.07596 6.64872 7.20365C4.6681 9.37447 4.76394 11.9603 4.79589 12.4072C4.92367 15.2485 6.71261 16.9723 7.09595 17.3235C7.31957 17.515 9.45991 19.4305 12.4628 19.2389C12.8142 19.207 13.8364 19.1112 15.0184 18.5366C16.3282 17.8981 17.1588 17.0362 17.574 16.5254C17.8616 16.1423 18.2129 15.6315 18.5005 14.9931C18.788 14.4504 18.9157 13.9715 19.0116 13.5884Z" fill="#29485B"/>
<path d="M5.65838 15.4081C6.90425 16.5254 8.15012 17.6428 9.396 18.7601C7.76678 19.207 6.1695 19.622 4.54028 20.069C4.92363 18.5047 5.27503 16.9404 5.65838 15.4081Z" fill="white"/>
<path d="M11.9836 19.207C15.9533 19.207 19.1713 15.9911 19.1713 12.0241C19.1713 8.05715 15.9533 4.84128 11.9836 4.84128C8.01395 4.84128 4.7959 8.05715 4.7959 12.0241C4.7959 15.9911 8.01395 19.207 11.9836 19.207Z" fill="white"/>
<path d="M23.5159 15.2804C20.3533 15.2804 17.1907 15.2804 14.0281 15.2804V11.3218C17.3504 11.3218 20.6408 11.3218 23.9631 11.3218C24.027 11.9922 23.9951 12.5668 23.9631 13.0138C23.9312 13.4926 23.8673 13.8757 23.8034 14.0992C23.7075 14.5781 23.6117 14.9611 23.5159 15.2804Z" fill="#29485B"/>
</svg>
