<?xml version="1.0" encoding="utf-8"?>
<!-- Generator: Adobe Illustrator 24.2.1, SVG Export Plug-In . SVG Version: 6.00 Build 0)  -->
<svg version="1.1" id="Layer_1" xmlns="http://www.w3.org/2000/svg" xmlns:xlink="http://www.w3.org/1999/xlink" x="0px" y="0px"
	 viewBox="0 0 24 24" style="enable-background:new 0 0 24 24;" xml:space="preserve">
<style type="text/css">
	.st0{display:none;fill:#29485B;}
	.st1{display:none;fill-rule:evenodd;clip-rule:evenodd;fill:#0482DC;}
	.st2{fill:#29485B;}
	.st3{fill:#0482DC;}
</style>
<path class="st0" d="M0,24l1.7-6.2C0.6,16,0.1,14,0.1,11.9C0.1,5.3,5.5,0,12,0c3.2,0,6.2,1.2,8.5,3.5c2.3,2.2,3.5,5.2,3.5,8.4
	c0,6.6-5.4,11.9-11.9,11.9h0c-2,0-4-0.5-5.7-1.4L0,24z M6.6,20.2L7,20.4c1.5,0.9,3.3,1.4,5.1,1.4h0c5.5,0,9.9-4.4,9.9-9.9
	c0-2.6-1-5.1-2.9-7C17.2,3,14.7,2,12.1,2c-5.5,0-9.9,4.4-9.9,9.9c0,1.9,0.5,3.7,1.5,5.3l0.2,0.4l-1,3.6L6.6,20.2z"/>
<path class="st1" d="M18.1,14.7c-0.1-0.1-0.3-0.2-0.6-0.3c-0.3-0.1-1.8-0.9-2-1c-0.3-0.1-0.5-0.1-0.7,0.1c-0.2,0.3-0.8,1-0.9,1.2
	c-0.2,0.2-0.3,0.2-0.6,0.1c-0.3-0.1-1.3-0.5-2.4-1.5c-0.9-0.8-1.5-1.8-1.7-2.1c-0.2-0.3,0-0.5,0.1-0.6c0.1-0.1,0.3-0.3,0.4-0.5
	C9.9,10,9.9,9.8,10,9.6c0.1-0.2,0-0.4,0-0.5C9.9,9,9.3,7.5,9.1,6.9C8.8,6.3,8.6,6.4,8.4,6.4c-0.2,0-0.4,0-0.6,0
	C7.6,6.4,7.3,6.5,7,6.8c-0.3,0.3-1,1-1,2.5c0,1.5,1.1,2.9,1.2,3.1c0.2,0.2,2.1,3.2,5.1,4.5c0.7,0.3,1.3,0.5,1.7,0.6
	c0.7,0.2,1.4,0.2,1.9,0.1c0.6-0.1,1.8-0.7,2-1.4C18.1,15.4,18.1,14.9,18.1,14.7z"/>
<g>
	<path class="st2" d="M12,2.4c3.1,0,3.5,0,4.7,0.1c1.1,0.1,1.8,0.2,2.2,0.4c0.5,0.2,0.9,0.5,1.4,0.9c0.4,0.4,0.7,0.8,0.9,1.4
		c0.2,0.4,0.4,1,0.4,2.2c0.1,1.2,0.1,1.6,0.1,4.7s0,3.5-0.1,4.7c-0.1,1.1-0.2,1.8-0.4,2.2c-0.2,0.5-0.5,0.9-0.9,1.4
		c-0.4,0.4-0.8,0.7-1.4,0.9c-0.4,0.2-1,0.4-2.2,0.4c-1.2,0.1-1.6,0.1-4.7,0.1s-3.5,0-4.7-0.1c-1.1-0.1-1.8-0.2-2.2-0.4
		c-0.5-0.2-0.9-0.5-1.4-0.9c-0.4-0.4-0.7-0.8-0.9-1.4c-0.2-0.4-0.4-1-0.4-2.2c-0.1-1.2-0.1-1.6-0.1-4.7s0-3.5,0.1-4.7
		c0.1-1.1,0.2-1.8,0.4-2.2c0.2-0.5,0.5-0.9,0.9-1.4c0.4-0.4,0.8-0.7,1.4-0.9c0.4-0.2,1-0.4,2.2-0.4C8.5,2.4,8.9,2.4,12,2.4 M12,0.3
		c-3.2,0-3.6,0-4.8,0.1C5.9,0.4,5.1,0.6,4.3,0.9C3.5,1.2,2.9,1.6,2.2,2.2C1.6,2.9,1.2,3.5,0.9,4.3C0.6,5.1,0.4,5.9,0.3,7.2
		C0.3,8.4,0.3,8.8,0.3,12c0,3.2,0,3.6,0.1,4.8c0.1,1.3,0.3,2.1,0.5,2.9c0.3,0.8,0.7,1.4,1.4,2.1c0.7,0.7,1.3,1.1,2.1,1.4
		c0.7,0.3,1.6,0.5,2.9,0.5c1.3,0.1,1.7,0.1,4.8,0.1s3.6,0,4.8-0.1c1.3-0.1,2.1-0.3,2.9-0.5c0.8-0.3,1.4-0.7,2.1-1.4
		c0.7-0.7,1.1-1.3,1.4-2.1c0.3-0.7,0.5-1.6,0.5-2.9c0.1-1.3,0.1-1.7,0.1-4.8s0-3.6-0.1-4.8c-0.1-1.3-0.3-2.1-0.5-2.9
		c-0.3-0.8-0.7-1.4-1.4-2.1c-0.7-0.7-1.3-1.1-2.1-1.4c-0.7-0.3-1.6-0.5-2.9-0.5C15.6,0.3,15.2,0.3,12,0.3L12,0.3z"/>
	<path class="st3" d="M12,6c-3.3,0-6,2.7-6,6s2.7,6,6,6s6-2.7,6-6S15.3,6,12,6z M12,15.9c-2.2,0-3.9-1.8-3.9-3.9
		c0-2.2,1.8-3.9,3.9-3.9c2.2,0,3.9,1.8,3.9,3.9C15.9,14.2,14.2,15.9,12,15.9z"/>
	<circle class="st3" cx="18.3" cy="5.7" r="1.4"/>
</g>
</svg>
