<svg width="26" height="20" viewBox="0 0 26 20" fill="none" xmlns="http://www.w3.org/2000/svg">
<path d="M22.9172 0.75H1.69409C1.15644 0.75 0.75 1.23878 0.75 1.78641C0.75 2.06189 0.860071 2.29485 1.02893 2.47923C1.02904 2.47935 1.02915 2.47948 1.02927 2.4796L4.5141 6.31029V16.699C4.5141 18.0998 5.56898 19.25 6.87306 19.25H22.8905C24.2271 19.25 25.2495 18.0643 25.2495 16.6699V3.30355C25.2773 1.93021 24.2218 0.75 22.9172 0.75Z" fill="#29485B" stroke="#29485B" stroke-width="0.5"/>
<path d="M23.6113 16.6238C23.6113 17.0633 23.2909 17.4148 22.8905 17.4148H6.87303C6.4726 17.4148 6.17895 17.0633 6.17895 16.6238V5.78398C6.17895 5.5789 6.09886 5.37382 5.96538 5.22734L3.40259 2.41484H22.8905C23.2909 2.41484 23.6113 2.7664 23.6113 3.17656V16.6238Z" fill="white"/>
<path d="M21.2621 10.943H8.52822C7.59387 10.943 7.59387 9.52818 8.52822 9.52818H21.2354C22.1964 9.52818 22.1964 10.943 21.2621 10.943Z" fill="#0482DC"/>
<path d="M21.2621 7.41922H8.52822C7.59387 7.41922 7.59387 6.00436 8.52822 6.00436H21.2354C22.1964 6.00436 22.1964 7.41922 21.2621 7.41922Z" fill="#0482DC"/>
<path d="M14.9085 14.4936H8.52822C7.59387 14.4936 7.59387 13.0787 8.52822 13.0787H14.8818C15.8428 13.0787 15.8428 14.4936 14.9085 14.4936Z" fill="#0482DC"/>
</svg>
